# xmcd
#
# Track frame offsets:
# 150
# 19227
# 40252
# 61382
# 74855
# 91854
# 98457
# 115870
# 136502
#
# Disc length: 2062 seconds
#
#
# Revision: 3
# Processed by: cddbd v1.4PL0 Copyright (c) Steve Scherf et al.
# Submitted via: FreeRIP 2.00 
#
DISCID=71080c09
DTITLE=POEM - 1집 [verse 1]
DYEAR=1900
DGENRE=
TTITLE0=다른 세상 그날까지
TTITLE1=서로 다른 안녕
TTITLE2=알수없는 나
TTITLE3=그림자 놀이
TTITLE4=영원한 사랑
TTITLE5=Interlude
TTITLE6=먼곳에서 찾지 말아
TTITLE7=소년의 고백
TTITLE8=내 마음속 어디에
EXTD=
EXTT0=
EXTT1=
EXTT2=
EXTT3=
EXTT4=
EXTT5=
EXTT6=
EXTT7=
EXTT8=
PLAYORDER=
